<svg width="36" height="32" viewBox="0 0 36 32" fill="none" xmlns="http://www.w3.org/2000/svg">
<path opacity="0.4" fill-rule="evenodd" clip-rule="evenodd" d="M9.9891 27.5563C10.7276 27.5563 11.3279 28.0851 11.3279 28.7357C11.3279 29.3863 10.7276 29.9135 9.9891 29.9135C9.2506 29.9135 8.6521 29.3863 8.6521 28.7357C8.6521 28.0851 9.2506 27.5563 9.9891 27.5563Z" stroke="#483470" stroke-width="3.2" stroke-linecap="round" stroke-linejoin="round"/>
<path opacity="0.4" fill-rule="evenodd" clip-rule="evenodd" d="M29.6808 27.5563C30.4193 27.5563 31.0195 28.0851 31.0195 28.7357C31.0195 29.3863 30.4193 29.9135 29.6808 29.9135C28.9423 29.9135 28.342 29.3863 28.342 28.7357C28.342 28.0851 28.9423 27.5563 29.6808 27.5563Z" stroke="#483470" stroke-width="3.2" stroke-linecap="round" stroke-linejoin="round"/>
<path d="M1.81226 2.01044L5.45226 2.56544L7.13751 20.253C7.27401 21.6944 8.64076 22.8014 10.2823 22.8014H29.3783C30.9463 22.8014 32.2763 21.7869 32.502 20.4179L34.1628 10.3077C34.3675 9.06048 33.2703 7.94431 31.8405 7.94431H6.03676" stroke="#483470" stroke-width="3.2" stroke-linecap="round" stroke-linejoin="round"/>
<path opacity="0.4" d="M21.7195 13.6422H26.5722" stroke="#483470" stroke-width="3.2" stroke-linecap="round" stroke-linejoin="round"/>
</svg>
