<svg width="42" height="36" viewBox="0 0 42 36" fill="none" xmlns="http://www.w3.org/2000/svg">
<path d="M8.75 15H12.25C15.75 15 17.5 13.5 17.5 10.5V7.5C17.5 4.5 15.75 3 12.25 3H8.75C5.25 3 3.5 4.5 3.5 7.5V10.5C3.5 13.5 5.25 15 8.75 15Z" stroke="#483470" stroke-width="2.88" stroke-miterlimit="10" stroke-linecap="round" stroke-linejoin="round"/>
<path d="M29.75 15H33.25C36.75 15 38.5 13.5 38.5 10.5V7.5C38.5 4.5 36.75 3 33.25 3H29.75C26.25 3 24.5 4.5 24.5 7.5V10.5C24.5 13.5 26.25 15 29.75 15Z" stroke="#483470" stroke-width="2.88" stroke-miterlimit="10" stroke-linecap="round" stroke-linejoin="round"/>
<path d="M29.75 33H33.25C36.75 33 38.5 31.5 38.5 28.5V25.5C38.5 22.5 36.75 21 33.25 21H29.75C26.25 21 24.5 22.5 24.5 25.5V28.5C24.5 31.5 26.25 33 29.75 33Z" stroke="#483470" stroke-width="2.88" stroke-miterlimit="10" stroke-linecap="round" stroke-linejoin="round"/>
<path d="M8.75 33H12.25C15.75 33 17.5 31.5 17.5 28.5V25.5C17.5 22.5 15.75 21 12.25 21H8.75C5.25 21 3.5 22.5 3.5 25.5V28.5C3.5 31.5 5.25 33 8.75 33Z" stroke="#483470" stroke-width="2.88" stroke-miterlimit="10" stroke-linecap="round" stroke-linejoin="round"/>
</svg>
