<svg width="35" height="35" viewBox="0 0 35 35" fill="none" xmlns="http://www.w3.org/2000/svg">
<path d="M31.0332 9.33342L17.1207 23.2458C15.7353 24.6313 11.6227 25.2729 10.704 24.3542C9.78523 23.4354 10.4123 19.3229 11.7977 17.9375L25.7249 4.01046C26.0683 3.63575 26.4841 3.33455 26.9472 3.12499C27.4103 2.91542 27.911 2.80182 28.4193 2.79112C28.9274 2.78043 29.4325 2.8728 29.904 3.06269C30.3755 3.25258 30.8037 3.53608 31.1625 3.89599C31.5214 4.25591 31.8038 4.68481 31.9923 5.15681C32.1809 5.62883 32.272 6.13414 32.2599 6.6423C32.2478 7.15045 32.1328 7.65094 31.922 8.11345C31.7112 8.57596 31.4089 8.99099 31.0332 9.33342Z" stroke="#483470" stroke-width="2.176" stroke-linecap="round" stroke-linejoin="round"/>
<path d="M16.0417 5.83325H8.75008C7.20298 5.83325 5.71934 6.44782 4.62538 7.54179C3.53142 8.63576 2.91675 10.1195 2.91675 11.6666V26.2499C2.91675 27.7971 3.53142 29.2808 4.62538 30.3747C5.71934 31.4687 7.20298 32.0833 8.75008 32.0833H24.7917C28.0147 32.0833 29.1667 29.4583 29.1667 26.2499V18.9583" stroke="#483470" stroke-width="2.176" stroke-linecap="round" stroke-linejoin="round"/>
</svg>
