<svg width="42" height="37" viewBox="0 0 42 37" fill="none" xmlns="http://www.w3.org/2000/svg">
<path d="M36.75 10.7917V28.6751C36.75 30.7255 34.8775 32.3751 32.55 32.3751H9.45C7.1225 32.3751 5.25 30.7255 5.25 28.6751V10.7917" fill="#483470" fill-opacity="0.16"/>
<path d="M36.75 10.7917V28.6751C36.75 30.7255 34.8775 32.3751 32.55 32.3751H9.45C7.1225 32.3751 5.25 30.7255 5.25 28.6751V10.7917" stroke="white" stroke-width="2.66667"/>
<path d="M36.75 10.7917V28.6751C36.75 30.7255 34.8775 32.3751 32.55 32.3751H9.45C7.1225 32.3751 5.25 30.7255 5.25 28.6751V10.7917" stroke="#483470" stroke-width="1.92" stroke-miterlimit="10" stroke-linecap="round"/>
<path d="M37.45 4.625H4.55C3.80739 4.625 3.0952 4.88488 2.5701 5.34747C2.045 5.81006 1.75 6.43747 1.75 7.09167V8.325C1.75 8.64893 1.82242 8.96968 1.96314 9.26895C2.10385 9.56822 2.3101 9.84015 2.5701 10.0692C3.0952 10.5318 3.80739 10.7917 4.55 10.7917H37.45C38.1926 10.7917 38.9048 10.5318 39.4299 10.0692C39.955 9.60661 40.25 8.9792 40.25 8.325V7.09167C40.25 6.76774 40.1776 6.44698 40.0369 6.14771C39.8962 5.84844 39.6899 5.57652 39.4299 5.34747C39.1699 5.11842 38.8612 4.93673 38.5215 4.81276C38.1818 4.6888 37.8177 4.625 37.45 4.625Z" fill="white" stroke="#483470" stroke-width="1.92" stroke-miterlimit="10"/>
<path d="M14 16.9583H28" stroke="#483470" stroke-width="1.92" stroke-miterlimit="10" stroke-linecap="round"/>
</svg>
