<svg width="28" height="32" viewBox="0 0 28 32" fill="none" xmlns="http://www.w3.org/2000/svg">
<path d="M14 13.4166C17.866 13.4166 21 10.6557 21 7.24992C21 3.84416 17.866 1.08325 14 1.08325C10.134 1.08325 7 3.84416 7 7.24992C7 10.6557 10.134 13.4166 14 13.4166Z" stroke="#483470" stroke-width="2.176"/>
<path d="M19.25 29.7815C17.6587 30.1619 15.8788 30.3748 14 30.3748C7.23452 30.3748 1.75 27.6139 1.75 24.2082C1.75 20.8025 7.23452 18.0415 14 18.0415C20.7655 18.0415 26.25 20.8025 26.25 24.2082C26.25 24.7405 26.116 25.2571 25.8641 25.7498" stroke="#483470" stroke-width="2.176" stroke-linecap="round"/>
</svg>
