<svg width="37" height="42" viewBox="0 0 37 42" fill="none" xmlns="http://www.w3.org/2000/svg">
<g clip-path="url(#clip0_44_796)">
<path d="M35.6934 28.6124L25.0212 7.61244C24.9131 7.40458 24.7567 7.23457 24.569 7.1211C24.3813 7.00764 24.1697 6.95512 23.9575 6.96931L14.4415 7.61244C14.261 7.62397 14.0853 7.68342 13.9287 7.78599C13.7721 7.88857 13.6388 8.03142 13.5397 8.20306L8.29028 17.2593C8.1888 17.4588 8.13538 17.6852 8.13538 17.9156C8.13538 18.146 8.1888 18.3723 8.29028 18.5718L18.9625 39.5718C19.1152 39.8684 19.3643 40.0851 19.6562 40.1756C19.7561 40.1882 19.8569 40.1882 19.9568 40.1756C20.1604 40.1732 20.3599 40.1098 20.535 39.9918L35.2656 30.3974C35.5301 30.2243 35.7235 29.9394 35.8036 29.605C35.8838 29.2706 35.8442 28.9138 35.6934 28.6124Z" fill="#483470" stroke="#F8ECEC" stroke-width="1.664"/>
<path d="M21.3328 11.9568L12.0828 6.70681C11.9214 6.61449 11.7432 6.56641 11.5625 6.56641C11.3818 6.56641 11.2036 6.61449 11.0422 6.70681L1.79219 11.9568C1.60151 12.0659 1.44115 12.2327 1.3289 12.4389C1.21666 12.6451 1.1569 12.8826 1.15625 13.1249V39.3749C1.15625 39.723 1.27807 40.0569 1.49491 40.303C1.71175 40.5492 2.00584 40.6874 2.3125 40.6874H20.8125C21.1192 40.6874 21.4133 40.5492 21.6301 40.303C21.8469 40.0569 21.9688 39.723 21.9688 39.3749V13.1249C21.9681 12.8826 21.9083 12.6451 21.7961 12.4389C21.6838 12.2327 21.5235 12.0659 21.3328 11.9568Z" fill="#F8ECEC" stroke="#F8ECEC" stroke-width="1.664"/>
<path d="M11.5625 19.6875C13.4782 19.6875 15.0312 17.9246 15.0312 15.75C15.0312 13.5754 13.4782 11.8125 11.5625 11.8125C9.64676 11.8125 8.09375 13.5754 8.09375 15.75C8.09375 17.9246 9.64676 19.6875 11.5625 19.6875Z" fill="#483470" stroke="#F8ECEC" stroke-width="1.664"/>
<path d="M12.7188 26.25H6.9375C6.63084 26.25 6.33675 26.1117 6.11991 25.8656C5.90307 25.6194 5.78125 25.2856 5.78125 24.9375C5.78125 24.5894 5.90307 24.2556 6.11991 24.0094C6.33675 23.7633 6.63084 23.625 6.9375 23.625H12.7188C13.0254 23.625 13.3195 23.7633 13.5363 24.0094C13.7532 24.2556 13.875 24.5894 13.875 24.9375C13.875 25.2856 13.7532 25.6194 13.5363 25.8656C13.3195 26.1117 13.0254 26.25 12.7188 26.25Z" fill="#483470" stroke="#F8ECEC" stroke-width="1.664"/>
<path d="M16.1875 30.8438H6.9375C6.63084 30.8438 6.33675 30.7055 6.11991 30.4593C5.90307 30.2132 5.78125 29.8793 5.78125 29.5312C5.78125 29.1832 5.90307 28.8493 6.11991 28.6032C6.33675 28.357 6.63084 28.2188 6.9375 28.2188H16.1875C16.4942 28.2188 16.7883 28.357 17.0051 28.6032C17.2219 28.8493 17.3438 29.1832 17.3438 29.5312C17.3438 29.8793 17.2219 30.2132 17.0051 30.4593C16.7883 30.7055 16.4942 30.8438 16.1875 30.8438Z" fill="#483470" stroke="#F8ECEC" stroke-width="1.664"/>
<path d="M16.1875 35.4375H6.9375C6.63084 35.4375 6.33675 35.2992 6.11991 35.0531C5.90307 34.8069 5.78125 34.4731 5.78125 34.125C5.78125 33.7769 5.90307 33.4431 6.11991 33.1969C6.33675 32.9508 6.63084 32.8125 6.9375 32.8125H16.1875C16.4942 32.8125 16.7883 32.9508 17.0051 33.1969C17.2219 33.4431 17.3438 33.7769 17.3438 34.125C17.3438 34.4731 17.2219 34.8069 17.0051 35.0531C16.7883 35.2992 16.4942 35.4375 16.1875 35.4375Z" fill="#483470" stroke="#F8ECEC" stroke-width="1.664"/>
<path d="M11.5625 14.4375C11.2558 14.4375 10.9617 14.2992 10.7449 14.0531C10.5281 13.8069 10.4062 13.4731 10.4062 13.125V2.625C10.4062 2.2769 10.5281 1.94306 10.7449 1.69692C10.9617 1.45078 11.2558 1.3125 11.5625 1.3125C11.8692 1.3125 12.1633 1.45078 12.3801 1.69692C12.5969 1.94306 12.7188 2.2769 12.7188 2.625V13.125C12.7188 13.4731 12.5969 13.8069 12.3801 14.0531C12.1633 14.2992 11.8692 14.4375 11.5625 14.4375Z" fill="#483470" stroke="#F8ECEC" stroke-width="1.664"/>
</g>
<defs>
<clipPath id="clip0_44_796">
<rect width="37" height="42" fill="white"/>
</clipPath>
</defs>
</svg>
